<mxfile host="app.diagrams.net" modified="2023-06-27T09:41:45.015Z" agent="Mozilla/5.0 (Macintosh; Intel Mac OS X 10.15; rv:109.0) Gecko/20100101 Firefox/114.0" etag="lqotF1eVdNarNP0uLtm2" version="21.5.0" type="device">
  <diagram id="7__NSpULbXoRpTSfMPk9" name="Page-1">
    <mxGraphModel dx="903" dy="1070" grid="1" gridSize="10" guides="1" tooltips="1" connect="1" arrows="1" fold="1" page="1" pageScale="1" pageWidth="827" pageHeight="1169" math="0" shadow="0">
      <root>
        <mxCell id="0" />
        <mxCell id="1" parent="0" />
        <mxCell id="G_tm_CRtu6cZY40wkIai-1" value="SRAM" style="whiteSpace=wrap;html=1;aspect=fixed;fillColor=#f5f5f5;fontColor=#333333;strokeColor=#000000;strokeWidth=1;fontSize=12;" parent="1" vertex="1">
          <mxGeometry x="160" y="360" width="40" height="40" as="geometry" />
        </mxCell>
        <mxCell id="G_tm_CRtu6cZY40wkIai-2" value="Core" style="whiteSpace=wrap;html=1;aspect=fixed;strokeWidth=1;strokeColor=#000000;fillColor=#FFFFFF;fontColor=#000000;fontSize=12;" parent="1" vertex="1">
          <mxGeometry x="220" y="360" width="40" height="40" as="geometry" />
        </mxCell>
        <mxCell id="G_tm_CRtu6cZY40wkIai-3" value="" style="whiteSpace=wrap;html=1;aspect=fixed;fillColor=#f5f5f5;fontColor=#333333;strokeColor=#000000;strokeWidth=1;fontSize=14;" parent="1" vertex="1">
          <mxGeometry x="160" y="410" width="40" height="40" as="geometry" />
        </mxCell>
        <mxCell id="G_tm_CRtu6cZY40wkIai-4" value="" style="whiteSpace=wrap;html=1;aspect=fixed;strokeWidth=1;strokeColor=#000000;fillColor=#FFFFFF;fontSize=14;" parent="1" vertex="1">
          <mxGeometry x="220" y="410" width="40" height="40" as="geometry" />
        </mxCell>
        <mxCell id="G_tm_CRtu6cZY40wkIai-5" value="" style="whiteSpace=wrap;html=1;aspect=fixed;fillColor=#f5f5f5;fontColor=#333333;strokeColor=#000000;strokeWidth=1;fontSize=14;" parent="1" vertex="1">
          <mxGeometry x="160" y="460" width="40" height="40" as="geometry" />
        </mxCell>
        <mxCell id="G_tm_CRtu6cZY40wkIai-6" value="" style="whiteSpace=wrap;html=1;aspect=fixed;strokeWidth=1;strokeColor=#000000;fillColor=#FFFFFF;fontSize=14;" parent="1" vertex="1">
          <mxGeometry x="220" y="460" width="40" height="40" as="geometry" />
        </mxCell>
        <mxCell id="G_tm_CRtu6cZY40wkIai-7" value="" style="whiteSpace=wrap;html=1;aspect=fixed;fillColor=#f5f5f5;fontColor=#333333;strokeColor=#000000;strokeWidth=1;fontSize=14;" parent="1" vertex="1">
          <mxGeometry x="160" y="510" width="40" height="40" as="geometry" />
        </mxCell>
        <mxCell id="G_tm_CRtu6cZY40wkIai-8" value="" style="whiteSpace=wrap;html=1;aspect=fixed;strokeWidth=1;strokeColor=#000000;fillColor=#FFFFFF;fontSize=14;" parent="1" vertex="1">
          <mxGeometry x="220" y="510" width="40" height="40" as="geometry" />
        </mxCell>
        <mxCell id="G_tm_CRtu6cZY40wkIai-9" value="" style="endArrow=none;html=1;rounded=0;exitX=0;exitY=0.5;exitDx=0;exitDy=0;edgeStyle=orthogonalEdgeStyle;strokeWidth=1;strokeColor=#000000;fontSize=14;" parent="1" source="G_tm_CRtu6cZY40wkIai-8" edge="1">
          <mxGeometry width="50" height="50" relative="1" as="geometry">
            <mxPoint x="350" y="450" as="sourcePoint" />
            <mxPoint x="210" y="330" as="targetPoint" />
          </mxGeometry>
        </mxCell>
        <mxCell id="G_tm_CRtu6cZY40wkIai-10" value="Router" style="whiteSpace=wrap;html=1;aspect=fixed;strokeWidth=1;strokeColor=#000000;fillColor=#FFFFFF;fontColor=#000000;fontSize=12;" parent="1" vertex="1">
          <mxGeometry x="190" y="300" width="40" height="40" as="geometry" />
        </mxCell>
        <mxCell id="G_tm_CRtu6cZY40wkIai-11" value="" style="endArrow=none;html=1;rounded=0;exitX=0;exitY=0.5;exitDx=0;exitDy=0;entryX=0.5;entryY=1;entryDx=0;entryDy=0;edgeStyle=orthogonalEdgeStyle;strokeWidth=1;strokeColor=#000000;fontSize=14;" parent="1" source="G_tm_CRtu6cZY40wkIai-6" target="G_tm_CRtu6cZY40wkIai-10" edge="1">
          <mxGeometry width="50" height="50" relative="1" as="geometry">
            <mxPoint x="350" y="450" as="sourcePoint" />
            <mxPoint x="400" y="400" as="targetPoint" />
          </mxGeometry>
        </mxCell>
        <mxCell id="G_tm_CRtu6cZY40wkIai-13" value="" style="endArrow=none;html=1;rounded=0;exitX=0;exitY=0.5;exitDx=0;exitDy=0;entryX=0.5;entryY=1;entryDx=0;entryDy=0;edgeStyle=orthogonalEdgeStyle;strokeWidth=1;strokeColor=#000000;fontSize=14;" parent="1" source="G_tm_CRtu6cZY40wkIai-4" target="G_tm_CRtu6cZY40wkIai-10" edge="1">
          <mxGeometry width="50" height="50" relative="1" as="geometry">
            <mxPoint x="350" y="450" as="sourcePoint" />
            <mxPoint x="400" y="400" as="targetPoint" />
          </mxGeometry>
        </mxCell>
        <mxCell id="G_tm_CRtu6cZY40wkIai-14" value="" style="endArrow=none;html=1;rounded=0;exitX=0;exitY=0.5;exitDx=0;exitDy=0;entryX=0.5;entryY=1;entryDx=0;entryDy=0;edgeStyle=orthogonalEdgeStyle;strokeWidth=1;strokeColor=#000000;fontSize=14;" parent="1" source="G_tm_CRtu6cZY40wkIai-2" target="G_tm_CRtu6cZY40wkIai-10" edge="1">
          <mxGeometry width="50" height="50" relative="1" as="geometry">
            <mxPoint x="350" y="450" as="sourcePoint" />
            <mxPoint x="400" y="400" as="targetPoint" />
          </mxGeometry>
        </mxCell>
        <mxCell id="G_tm_CRtu6cZY40wkIai-15" value="" style="endArrow=none;html=1;rounded=0;exitX=1;exitY=0.75;exitDx=0;exitDy=0;strokeWidth=1;strokeColor=#000000;fontSize=14;" parent="1" source="G_tm_CRtu6cZY40wkIai-1" edge="1">
          <mxGeometry width="50" height="50" relative="1" as="geometry">
            <mxPoint x="350" y="450" as="sourcePoint" />
            <mxPoint x="220" y="390" as="targetPoint" />
          </mxGeometry>
        </mxCell>
        <mxCell id="G_tm_CRtu6cZY40wkIai-16" value="" style="endArrow=none;html=1;rounded=0;exitX=1;exitY=0.75;exitDx=0;exitDy=0;strokeWidth=1;entryX=0;entryY=0.75;entryDx=0;entryDy=0;strokeColor=#000000;fontSize=14;" parent="1" source="G_tm_CRtu6cZY40wkIai-3" target="G_tm_CRtu6cZY40wkIai-4" edge="1">
          <mxGeometry width="50" height="50" relative="1" as="geometry">
            <mxPoint x="210" y="400" as="sourcePoint" />
            <mxPoint x="230" y="400" as="targetPoint" />
          </mxGeometry>
        </mxCell>
        <mxCell id="G_tm_CRtu6cZY40wkIai-17" value="" style="endArrow=none;html=1;rounded=0;exitX=1;exitY=0.75;exitDx=0;exitDy=0;strokeWidth=1;entryX=0;entryY=0.75;entryDx=0;entryDy=0;strokeColor=#000000;fontSize=14;" parent="1" source="G_tm_CRtu6cZY40wkIai-5" target="G_tm_CRtu6cZY40wkIai-6" edge="1">
          <mxGeometry width="50" height="50" relative="1" as="geometry">
            <mxPoint x="220" y="410" as="sourcePoint" />
            <mxPoint x="240" y="410" as="targetPoint" />
          </mxGeometry>
        </mxCell>
        <mxCell id="G_tm_CRtu6cZY40wkIai-18" value="" style="endArrow=none;html=1;rounded=0;exitX=1;exitY=0.75;exitDx=0;exitDy=0;strokeWidth=1;entryX=0;entryY=0.75;entryDx=0;entryDy=0;strokeColor=#000000;fontSize=14;" parent="1" source="G_tm_CRtu6cZY40wkIai-7" target="G_tm_CRtu6cZY40wkIai-8" edge="1">
          <mxGeometry width="50" height="50" relative="1" as="geometry">
            <mxPoint x="230" y="420" as="sourcePoint" />
            <mxPoint x="250" y="420" as="targetPoint" />
          </mxGeometry>
        </mxCell>
        <mxCell id="G_tm_CRtu6cZY40wkIai-19" value="" style="whiteSpace=wrap;html=1;aspect=fixed;fillColor=#f5f5f5;fontColor=#333333;strokeColor=#000000;strokeWidth=1;fontSize=14;" parent="1" vertex="1">
          <mxGeometry x="270" y="360" width="40" height="40" as="geometry" />
        </mxCell>
        <mxCell id="G_tm_CRtu6cZY40wkIai-20" value="" style="whiteSpace=wrap;html=1;aspect=fixed;strokeWidth=1;strokeColor=#000000;fillColor=#FFFFFF;fontSize=14;" parent="1" vertex="1">
          <mxGeometry x="330" y="360" width="40" height="40" as="geometry" />
        </mxCell>
        <mxCell id="G_tm_CRtu6cZY40wkIai-21" value="" style="whiteSpace=wrap;html=1;aspect=fixed;fillColor=#f5f5f5;fontColor=#333333;strokeColor=#000000;strokeWidth=1;fontSize=14;" parent="1" vertex="1">
          <mxGeometry x="270" y="410" width="40" height="40" as="geometry" />
        </mxCell>
        <mxCell id="G_tm_CRtu6cZY40wkIai-22" value="" style="whiteSpace=wrap;html=1;aspect=fixed;strokeWidth=1;strokeColor=#000000;fillColor=#FFFFFF;fontSize=14;" parent="1" vertex="1">
          <mxGeometry x="330" y="410" width="40" height="40" as="geometry" />
        </mxCell>
        <mxCell id="G_tm_CRtu6cZY40wkIai-23" value="" style="whiteSpace=wrap;html=1;aspect=fixed;fillColor=#f5f5f5;fontColor=#333333;strokeColor=#000000;strokeWidth=1;fontSize=14;" parent="1" vertex="1">
          <mxGeometry x="270" y="460" width="40" height="40" as="geometry" />
        </mxCell>
        <mxCell id="G_tm_CRtu6cZY40wkIai-24" value="" style="whiteSpace=wrap;html=1;aspect=fixed;strokeWidth=1;strokeColor=#000000;fillColor=#FFFFFF;fontSize=14;" parent="1" vertex="1">
          <mxGeometry x="330" y="460" width="40" height="40" as="geometry" />
        </mxCell>
        <mxCell id="G_tm_CRtu6cZY40wkIai-25" value="" style="whiteSpace=wrap;html=1;aspect=fixed;fillColor=#f5f5f5;fontColor=#333333;strokeColor=#000000;strokeWidth=1;fontSize=14;" parent="1" vertex="1">
          <mxGeometry x="270" y="510" width="40" height="40" as="geometry" />
        </mxCell>
        <mxCell id="G_tm_CRtu6cZY40wkIai-26" value="" style="whiteSpace=wrap;html=1;aspect=fixed;strokeWidth=1;strokeColor=#000000;fillColor=#FFFFFF;fontSize=14;" parent="1" vertex="1">
          <mxGeometry x="330" y="510" width="40" height="40" as="geometry" />
        </mxCell>
        <mxCell id="G_tm_CRtu6cZY40wkIai-27" value="" style="endArrow=none;html=1;rounded=0;exitX=0;exitY=0.5;exitDx=0;exitDy=0;edgeStyle=orthogonalEdgeStyle;strokeWidth=1;strokeColor=#000000;fontSize=14;" parent="1" source="G_tm_CRtu6cZY40wkIai-26" edge="1">
          <mxGeometry width="50" height="50" relative="1" as="geometry">
            <mxPoint x="460" y="450" as="sourcePoint" />
            <mxPoint x="320" y="330" as="targetPoint" />
          </mxGeometry>
        </mxCell>
        <mxCell id="G_tm_CRtu6cZY40wkIai-28" value="Router" style="whiteSpace=wrap;html=1;aspect=fixed;strokeWidth=1;strokeColor=#000000;fillColor=#FFFFFF;fontColor=#000000;fontSize=12;" parent="1" vertex="1">
          <mxGeometry x="300" y="300" width="40" height="40" as="geometry" />
        </mxCell>
        <mxCell id="G_tm_CRtu6cZY40wkIai-29" value="" style="endArrow=none;html=1;rounded=0;exitX=0;exitY=0.5;exitDx=0;exitDy=0;entryX=0.5;entryY=1;entryDx=0;entryDy=0;edgeStyle=orthogonalEdgeStyle;strokeWidth=1;strokeColor=#000000;fontSize=14;" parent="1" source="G_tm_CRtu6cZY40wkIai-24" target="G_tm_CRtu6cZY40wkIai-28" edge="1">
          <mxGeometry width="50" height="50" relative="1" as="geometry">
            <mxPoint x="460" y="450" as="sourcePoint" />
            <mxPoint x="510" y="400" as="targetPoint" />
          </mxGeometry>
        </mxCell>
        <mxCell id="G_tm_CRtu6cZY40wkIai-30" value="" style="endArrow=none;html=1;rounded=0;exitX=0;exitY=0.5;exitDx=0;exitDy=0;entryX=0.5;entryY=1;entryDx=0;entryDy=0;edgeStyle=orthogonalEdgeStyle;strokeWidth=1;strokeColor=#000000;fontSize=14;" parent="1" source="G_tm_CRtu6cZY40wkIai-22" target="G_tm_CRtu6cZY40wkIai-28" edge="1">
          <mxGeometry width="50" height="50" relative="1" as="geometry">
            <mxPoint x="460" y="450" as="sourcePoint" />
            <mxPoint x="510" y="400" as="targetPoint" />
          </mxGeometry>
        </mxCell>
        <mxCell id="G_tm_CRtu6cZY40wkIai-31" value="" style="endArrow=none;html=1;rounded=0;exitX=0;exitY=0.5;exitDx=0;exitDy=0;entryX=0.5;entryY=1;entryDx=0;entryDy=0;edgeStyle=orthogonalEdgeStyle;strokeWidth=1;strokeColor=#000000;fontSize=14;" parent="1" source="G_tm_CRtu6cZY40wkIai-20" target="G_tm_CRtu6cZY40wkIai-28" edge="1">
          <mxGeometry width="50" height="50" relative="1" as="geometry">
            <mxPoint x="460" y="450" as="sourcePoint" />
            <mxPoint x="510" y="400" as="targetPoint" />
          </mxGeometry>
        </mxCell>
        <mxCell id="G_tm_CRtu6cZY40wkIai-32" value="" style="endArrow=none;html=1;rounded=0;exitX=1;exitY=0.75;exitDx=0;exitDy=0;strokeWidth=1;strokeColor=#000000;fontSize=14;" parent="1" source="G_tm_CRtu6cZY40wkIai-19" edge="1">
          <mxGeometry width="50" height="50" relative="1" as="geometry">
            <mxPoint x="460" y="450" as="sourcePoint" />
            <mxPoint x="330" y="390" as="targetPoint" />
          </mxGeometry>
        </mxCell>
        <mxCell id="G_tm_CRtu6cZY40wkIai-33" value="" style="endArrow=none;html=1;rounded=0;exitX=1;exitY=0.75;exitDx=0;exitDy=0;strokeWidth=1;entryX=0;entryY=0.75;entryDx=0;entryDy=0;strokeColor=#000000;fontSize=14;" parent="1" source="G_tm_CRtu6cZY40wkIai-21" target="G_tm_CRtu6cZY40wkIai-22" edge="1">
          <mxGeometry width="50" height="50" relative="1" as="geometry">
            <mxPoint x="320" y="400" as="sourcePoint" />
            <mxPoint x="340" y="400" as="targetPoint" />
          </mxGeometry>
        </mxCell>
        <mxCell id="G_tm_CRtu6cZY40wkIai-34" value="" style="endArrow=none;html=1;rounded=0;exitX=1;exitY=0.75;exitDx=0;exitDy=0;strokeWidth=1;entryX=0;entryY=0.75;entryDx=0;entryDy=0;strokeColor=#000000;fontSize=14;" parent="1" source="G_tm_CRtu6cZY40wkIai-23" target="G_tm_CRtu6cZY40wkIai-24" edge="1">
          <mxGeometry width="50" height="50" relative="1" as="geometry">
            <mxPoint x="330" y="410" as="sourcePoint" />
            <mxPoint x="350" y="410" as="targetPoint" />
          </mxGeometry>
        </mxCell>
        <mxCell id="G_tm_CRtu6cZY40wkIai-35" value="" style="endArrow=none;html=1;rounded=0;exitX=1;exitY=0.75;exitDx=0;exitDy=0;strokeWidth=1;entryX=0;entryY=0.75;entryDx=0;entryDy=0;strokeColor=#000000;fontSize=14;" parent="1" source="G_tm_CRtu6cZY40wkIai-25" target="G_tm_CRtu6cZY40wkIai-26" edge="1">
          <mxGeometry width="50" height="50" relative="1" as="geometry">
            <mxPoint x="340" y="420" as="sourcePoint" />
            <mxPoint x="360" y="420" as="targetPoint" />
          </mxGeometry>
        </mxCell>
        <mxCell id="G_tm_CRtu6cZY40wkIai-36" value="" style="whiteSpace=wrap;html=1;aspect=fixed;fillColor=#f5f5f5;fontColor=#333333;strokeColor=#000000;strokeWidth=1;fontSize=14;" parent="1" vertex="1">
          <mxGeometry x="380" y="360" width="40" height="40" as="geometry" />
        </mxCell>
        <mxCell id="G_tm_CRtu6cZY40wkIai-37" value="" style="whiteSpace=wrap;html=1;aspect=fixed;strokeWidth=1;strokeColor=#000000;fillColor=#FFFFFF;fontSize=14;" parent="1" vertex="1">
          <mxGeometry x="440" y="360" width="40" height="40" as="geometry" />
        </mxCell>
        <mxCell id="G_tm_CRtu6cZY40wkIai-38" value="" style="whiteSpace=wrap;html=1;aspect=fixed;fillColor=#f5f5f5;fontColor=#333333;strokeColor=#000000;strokeWidth=1;fontSize=14;" parent="1" vertex="1">
          <mxGeometry x="380" y="410" width="40" height="40" as="geometry" />
        </mxCell>
        <mxCell id="G_tm_CRtu6cZY40wkIai-39" value="" style="whiteSpace=wrap;html=1;aspect=fixed;strokeWidth=1;strokeColor=#000000;fillColor=#FFFFFF;fontSize=14;" parent="1" vertex="1">
          <mxGeometry x="440" y="410" width="40" height="40" as="geometry" />
        </mxCell>
        <mxCell id="G_tm_CRtu6cZY40wkIai-40" value="" style="whiteSpace=wrap;html=1;aspect=fixed;fillColor=#f5f5f5;fontColor=#333333;strokeColor=#000000;strokeWidth=1;fontSize=14;" parent="1" vertex="1">
          <mxGeometry x="380" y="460" width="40" height="40" as="geometry" />
        </mxCell>
        <mxCell id="G_tm_CRtu6cZY40wkIai-41" value="" style="whiteSpace=wrap;html=1;aspect=fixed;strokeWidth=1;strokeColor=#000000;fillColor=#FFFFFF;fontSize=14;" parent="1" vertex="1">
          <mxGeometry x="440" y="460" width="40" height="40" as="geometry" />
        </mxCell>
        <mxCell id="G_tm_CRtu6cZY40wkIai-42" value="" style="whiteSpace=wrap;html=1;aspect=fixed;fillColor=#f5f5f5;fontColor=#333333;strokeColor=#000000;strokeWidth=1;fontSize=14;" parent="1" vertex="1">
          <mxGeometry x="380" y="510" width="40" height="40" as="geometry" />
        </mxCell>
        <mxCell id="G_tm_CRtu6cZY40wkIai-43" value="" style="whiteSpace=wrap;html=1;aspect=fixed;strokeWidth=1;strokeColor=#000000;fillColor=#FFFFFF;fontSize=14;" parent="1" vertex="1">
          <mxGeometry x="440" y="510" width="40" height="40" as="geometry" />
        </mxCell>
        <mxCell id="G_tm_CRtu6cZY40wkIai-44" value="" style="endArrow=none;html=1;rounded=0;exitX=0;exitY=0.5;exitDx=0;exitDy=0;edgeStyle=orthogonalEdgeStyle;strokeWidth=1;strokeColor=#000000;fontSize=14;" parent="1" source="G_tm_CRtu6cZY40wkIai-43" edge="1">
          <mxGeometry width="50" height="50" relative="1" as="geometry">
            <mxPoint x="570" y="450" as="sourcePoint" />
            <mxPoint x="430" y="330" as="targetPoint" />
          </mxGeometry>
        </mxCell>
        <mxCell id="G_tm_CRtu6cZY40wkIai-45" value="Router" style="whiteSpace=wrap;html=1;aspect=fixed;strokeWidth=1;strokeColor=#000000;fillColor=#FFFFFF;fontColor=#000000;fontSize=12;" parent="1" vertex="1">
          <mxGeometry x="410" y="300" width="40" height="40" as="geometry" />
        </mxCell>
        <mxCell id="G_tm_CRtu6cZY40wkIai-46" value="" style="endArrow=none;html=1;rounded=0;exitX=0;exitY=0.5;exitDx=0;exitDy=0;entryX=0.5;entryY=1;entryDx=0;entryDy=0;edgeStyle=orthogonalEdgeStyle;strokeWidth=1;strokeColor=#000000;fontSize=14;" parent="1" source="G_tm_CRtu6cZY40wkIai-41" target="G_tm_CRtu6cZY40wkIai-45" edge="1">
          <mxGeometry width="50" height="50" relative="1" as="geometry">
            <mxPoint x="570" y="450" as="sourcePoint" />
            <mxPoint x="620" y="400" as="targetPoint" />
          </mxGeometry>
        </mxCell>
        <mxCell id="G_tm_CRtu6cZY40wkIai-47" value="" style="endArrow=none;html=1;rounded=0;exitX=0;exitY=0.5;exitDx=0;exitDy=0;entryX=0.5;entryY=1;entryDx=0;entryDy=0;edgeStyle=orthogonalEdgeStyle;strokeWidth=1;strokeColor=#000000;fontSize=14;" parent="1" source="G_tm_CRtu6cZY40wkIai-39" target="G_tm_CRtu6cZY40wkIai-45" edge="1">
          <mxGeometry width="50" height="50" relative="1" as="geometry">
            <mxPoint x="570" y="450" as="sourcePoint" />
            <mxPoint x="620" y="400" as="targetPoint" />
          </mxGeometry>
        </mxCell>
        <mxCell id="G_tm_CRtu6cZY40wkIai-48" value="" style="endArrow=none;html=1;rounded=0;exitX=0;exitY=0.5;exitDx=0;exitDy=0;entryX=0.5;entryY=1;entryDx=0;entryDy=0;edgeStyle=orthogonalEdgeStyle;strokeWidth=1;strokeColor=#000000;fontSize=14;" parent="1" source="G_tm_CRtu6cZY40wkIai-37" target="G_tm_CRtu6cZY40wkIai-45" edge="1">
          <mxGeometry width="50" height="50" relative="1" as="geometry">
            <mxPoint x="570" y="450" as="sourcePoint" />
            <mxPoint x="620" y="400" as="targetPoint" />
          </mxGeometry>
        </mxCell>
        <mxCell id="G_tm_CRtu6cZY40wkIai-49" value="" style="endArrow=none;html=1;rounded=0;exitX=1;exitY=0.75;exitDx=0;exitDy=0;strokeWidth=1;strokeColor=#000000;fontSize=14;" parent="1" source="G_tm_CRtu6cZY40wkIai-36" edge="1">
          <mxGeometry width="50" height="50" relative="1" as="geometry">
            <mxPoint x="570" y="450" as="sourcePoint" />
            <mxPoint x="440" y="390" as="targetPoint" />
          </mxGeometry>
        </mxCell>
        <mxCell id="G_tm_CRtu6cZY40wkIai-50" value="" style="endArrow=none;html=1;rounded=0;exitX=1;exitY=0.75;exitDx=0;exitDy=0;strokeWidth=1;entryX=0;entryY=0.75;entryDx=0;entryDy=0;strokeColor=#000000;fontSize=14;" parent="1" source="G_tm_CRtu6cZY40wkIai-38" target="G_tm_CRtu6cZY40wkIai-39" edge="1">
          <mxGeometry width="50" height="50" relative="1" as="geometry">
            <mxPoint x="430" y="400" as="sourcePoint" />
            <mxPoint x="450" y="400" as="targetPoint" />
          </mxGeometry>
        </mxCell>
        <mxCell id="G_tm_CRtu6cZY40wkIai-51" value="" style="endArrow=none;html=1;rounded=0;exitX=1;exitY=0.75;exitDx=0;exitDy=0;strokeWidth=1;entryX=0;entryY=0.75;entryDx=0;entryDy=0;strokeColor=#000000;fontSize=14;" parent="1" source="G_tm_CRtu6cZY40wkIai-40" target="G_tm_CRtu6cZY40wkIai-41" edge="1">
          <mxGeometry width="50" height="50" relative="1" as="geometry">
            <mxPoint x="440" y="410" as="sourcePoint" />
            <mxPoint x="460" y="410" as="targetPoint" />
          </mxGeometry>
        </mxCell>
        <mxCell id="G_tm_CRtu6cZY40wkIai-52" value="" style="endArrow=none;html=1;rounded=0;exitX=1;exitY=0.75;exitDx=0;exitDy=0;strokeWidth=1;entryX=0;entryY=0.75;entryDx=0;entryDy=0;strokeColor=#000000;fontSize=14;" parent="1" source="G_tm_CRtu6cZY40wkIai-42" target="G_tm_CRtu6cZY40wkIai-43" edge="1">
          <mxGeometry width="50" height="50" relative="1" as="geometry">
            <mxPoint x="450" y="420" as="sourcePoint" />
            <mxPoint x="470" y="420" as="targetPoint" />
          </mxGeometry>
        </mxCell>
        <mxCell id="G_tm_CRtu6cZY40wkIai-53" value="" style="whiteSpace=wrap;html=1;aspect=fixed;fillColor=#f5f5f5;fontColor=#333333;strokeColor=#000000;strokeWidth=1;fontSize=14;" parent="1" vertex="1">
          <mxGeometry x="490" y="360" width="40" height="40" as="geometry" />
        </mxCell>
        <mxCell id="G_tm_CRtu6cZY40wkIai-54" value="" style="whiteSpace=wrap;html=1;aspect=fixed;strokeWidth=1;strokeColor=#000000;fillColor=#FFFFFF;fontSize=14;" parent="1" vertex="1">
          <mxGeometry x="550" y="360" width="40" height="40" as="geometry" />
        </mxCell>
        <mxCell id="G_tm_CRtu6cZY40wkIai-55" value="" style="whiteSpace=wrap;html=1;aspect=fixed;fillColor=#f5f5f5;fontColor=#333333;strokeColor=#000000;strokeWidth=1;fontSize=14;" parent="1" vertex="1">
          <mxGeometry x="490" y="410" width="40" height="40" as="geometry" />
        </mxCell>
        <mxCell id="G_tm_CRtu6cZY40wkIai-56" value="" style="whiteSpace=wrap;html=1;aspect=fixed;strokeWidth=1;strokeColor=#000000;fillColor=#FFFFFF;fontSize=14;" parent="1" vertex="1">
          <mxGeometry x="550" y="410" width="40" height="40" as="geometry" />
        </mxCell>
        <mxCell id="G_tm_CRtu6cZY40wkIai-57" value="" style="whiteSpace=wrap;html=1;aspect=fixed;fillColor=#f5f5f5;fontColor=#333333;strokeColor=#000000;strokeWidth=1;fontSize=14;" parent="1" vertex="1">
          <mxGeometry x="490" y="460" width="40" height="40" as="geometry" />
        </mxCell>
        <mxCell id="G_tm_CRtu6cZY40wkIai-58" value="" style="whiteSpace=wrap;html=1;aspect=fixed;strokeWidth=1;strokeColor=#000000;fillColor=#FFFFFF;fontSize=14;" parent="1" vertex="1">
          <mxGeometry x="550" y="460" width="40" height="40" as="geometry" />
        </mxCell>
        <mxCell id="G_tm_CRtu6cZY40wkIai-59" value="" style="whiteSpace=wrap;html=1;aspect=fixed;fillColor=#f5f5f5;fontColor=#333333;strokeColor=#000000;strokeWidth=1;fontSize=14;" parent="1" vertex="1">
          <mxGeometry x="490" y="510" width="40" height="40" as="geometry" />
        </mxCell>
        <mxCell id="G_tm_CRtu6cZY40wkIai-60" value="" style="whiteSpace=wrap;html=1;aspect=fixed;strokeWidth=1;strokeColor=#000000;fillColor=#FFFFFF;fontSize=14;" parent="1" vertex="1">
          <mxGeometry x="550" y="510" width="40" height="40" as="geometry" />
        </mxCell>
        <mxCell id="G_tm_CRtu6cZY40wkIai-61" value="" style="endArrow=none;html=1;rounded=0;exitX=0;exitY=0.5;exitDx=0;exitDy=0;edgeStyle=orthogonalEdgeStyle;strokeWidth=1;strokeColor=#000000;fontSize=14;" parent="1" source="G_tm_CRtu6cZY40wkIai-60" edge="1">
          <mxGeometry width="50" height="50" relative="1" as="geometry">
            <mxPoint x="680" y="450" as="sourcePoint" />
            <mxPoint x="540" y="330" as="targetPoint" />
          </mxGeometry>
        </mxCell>
        <mxCell id="G_tm_CRtu6cZY40wkIai-62" value="Router" style="whiteSpace=wrap;html=1;aspect=fixed;strokeWidth=1;strokeColor=#000000;fillColor=#FFFFFF;fontColor=#000000;fontSize=12;" parent="1" vertex="1">
          <mxGeometry x="520" y="300" width="40" height="40" as="geometry" />
        </mxCell>
        <mxCell id="G_tm_CRtu6cZY40wkIai-63" value="" style="endArrow=none;html=1;rounded=0;exitX=0;exitY=0.5;exitDx=0;exitDy=0;entryX=0.5;entryY=1;entryDx=0;entryDy=0;edgeStyle=orthogonalEdgeStyle;strokeWidth=1;strokeColor=#000000;fontSize=14;" parent="1" source="G_tm_CRtu6cZY40wkIai-58" target="G_tm_CRtu6cZY40wkIai-62" edge="1">
          <mxGeometry width="50" height="50" relative="1" as="geometry">
            <mxPoint x="680" y="450" as="sourcePoint" />
            <mxPoint x="730" y="400" as="targetPoint" />
          </mxGeometry>
        </mxCell>
        <mxCell id="G_tm_CRtu6cZY40wkIai-64" value="" style="endArrow=none;html=1;rounded=0;exitX=0;exitY=0.5;exitDx=0;exitDy=0;entryX=0.5;entryY=1;entryDx=0;entryDy=0;edgeStyle=orthogonalEdgeStyle;strokeWidth=1;strokeColor=#000000;fontSize=14;" parent="1" source="G_tm_CRtu6cZY40wkIai-56" target="G_tm_CRtu6cZY40wkIai-62" edge="1">
          <mxGeometry width="50" height="50" relative="1" as="geometry">
            <mxPoint x="680" y="450" as="sourcePoint" />
            <mxPoint x="730" y="400" as="targetPoint" />
          </mxGeometry>
        </mxCell>
        <mxCell id="G_tm_CRtu6cZY40wkIai-65" value="" style="endArrow=none;html=1;rounded=0;exitX=0;exitY=0.5;exitDx=0;exitDy=0;entryX=0.5;entryY=1;entryDx=0;entryDy=0;edgeStyle=orthogonalEdgeStyle;strokeWidth=1;strokeColor=#000000;fontSize=14;" parent="1" source="G_tm_CRtu6cZY40wkIai-54" target="G_tm_CRtu6cZY40wkIai-62" edge="1">
          <mxGeometry width="50" height="50" relative="1" as="geometry">
            <mxPoint x="680" y="450" as="sourcePoint" />
            <mxPoint x="730" y="400" as="targetPoint" />
          </mxGeometry>
        </mxCell>
        <mxCell id="G_tm_CRtu6cZY40wkIai-66" value="" style="endArrow=none;html=1;rounded=0;exitX=1;exitY=0.75;exitDx=0;exitDy=0;strokeWidth=1;strokeColor=#000000;fontSize=14;" parent="1" source="G_tm_CRtu6cZY40wkIai-53" edge="1">
          <mxGeometry width="50" height="50" relative="1" as="geometry">
            <mxPoint x="680" y="450" as="sourcePoint" />
            <mxPoint x="550" y="390" as="targetPoint" />
          </mxGeometry>
        </mxCell>
        <mxCell id="G_tm_CRtu6cZY40wkIai-67" value="" style="endArrow=none;html=1;rounded=0;exitX=1;exitY=0.75;exitDx=0;exitDy=0;strokeWidth=1;entryX=0;entryY=0.75;entryDx=0;entryDy=0;strokeColor=#000000;fontSize=14;" parent="1" source="G_tm_CRtu6cZY40wkIai-55" target="G_tm_CRtu6cZY40wkIai-56" edge="1">
          <mxGeometry width="50" height="50" relative="1" as="geometry">
            <mxPoint x="540" y="400" as="sourcePoint" />
            <mxPoint x="560" y="400" as="targetPoint" />
          </mxGeometry>
        </mxCell>
        <mxCell id="G_tm_CRtu6cZY40wkIai-68" value="" style="endArrow=none;html=1;rounded=0;exitX=1;exitY=0.75;exitDx=0;exitDy=0;strokeWidth=1;entryX=0;entryY=0.75;entryDx=0;entryDy=0;strokeColor=#000000;fontSize=14;" parent="1" source="G_tm_CRtu6cZY40wkIai-57" target="G_tm_CRtu6cZY40wkIai-58" edge="1">
          <mxGeometry width="50" height="50" relative="1" as="geometry">
            <mxPoint x="550" y="410" as="sourcePoint" />
            <mxPoint x="570" y="410" as="targetPoint" />
          </mxGeometry>
        </mxCell>
        <mxCell id="G_tm_CRtu6cZY40wkIai-69" value="" style="endArrow=none;html=1;rounded=0;exitX=1;exitY=0.75;exitDx=0;exitDy=0;strokeWidth=1;entryX=0;entryY=0.75;entryDx=0;entryDy=0;strokeColor=#000000;fontSize=14;" parent="1" source="G_tm_CRtu6cZY40wkIai-59" target="G_tm_CRtu6cZY40wkIai-60" edge="1">
          <mxGeometry width="50" height="50" relative="1" as="geometry">
            <mxPoint x="560" y="420" as="sourcePoint" />
            <mxPoint x="580" y="420" as="targetPoint" />
          </mxGeometry>
        </mxCell>
        <mxCell id="G_tm_CRtu6cZY40wkIai-70" value="Router" style="whiteSpace=wrap;html=1;aspect=fixed;strokeWidth=1;strokeColor=#000000;fillColor=#FFFFFF;fontColor=#000000;fontSize=12;" parent="1" vertex="1">
          <mxGeometry x="246" y="220" width="40" height="40" as="geometry" />
        </mxCell>
        <mxCell id="G_tm_CRtu6cZY40wkIai-71" value="Router" style="whiteSpace=wrap;html=1;aspect=fixed;strokeWidth=1;strokeColor=#000000;fillColor=#FFFFFF;fontColor=#000000;fontSize=12;" parent="1" vertex="1">
          <mxGeometry x="465" y="220" width="40" height="40" as="geometry" />
        </mxCell>
        <mxCell id="G_tm_CRtu6cZY40wkIai-72" value="" style="endArrow=none;html=1;rounded=0;strokeWidth=1;entryX=0.5;entryY=1;entryDx=0;entryDy=0;exitX=0.5;exitY=0;exitDx=0;exitDy=0;strokeColor=#000000;fontSize=14;" parent="1" source="G_tm_CRtu6cZY40wkIai-10" target="G_tm_CRtu6cZY40wkIai-70" edge="1">
          <mxGeometry width="50" height="50" relative="1" as="geometry">
            <mxPoint x="350" y="450" as="sourcePoint" />
            <mxPoint x="400" y="400" as="targetPoint" />
          </mxGeometry>
        </mxCell>
        <mxCell id="G_tm_CRtu6cZY40wkIai-73" value="" style="endArrow=none;html=1;rounded=0;strokeWidth=1;entryX=0.5;entryY=1;entryDx=0;entryDy=0;exitX=0.5;exitY=0;exitDx=0;exitDy=0;strokeColor=#000000;fontSize=14;" parent="1" source="G_tm_CRtu6cZY40wkIai-28" target="G_tm_CRtu6cZY40wkIai-70" edge="1">
          <mxGeometry width="50" height="50" relative="1" as="geometry">
            <mxPoint x="220" y="310" as="sourcePoint" />
            <mxPoint x="276" y="290" as="targetPoint" />
          </mxGeometry>
        </mxCell>
        <mxCell id="G_tm_CRtu6cZY40wkIai-74" value="" style="endArrow=none;html=1;rounded=0;strokeWidth=1;entryX=0.5;entryY=1;entryDx=0;entryDy=0;exitX=0.5;exitY=0;exitDx=0;exitDy=0;strokeColor=#000000;fontSize=14;" parent="1" source="G_tm_CRtu6cZY40wkIai-45" target="G_tm_CRtu6cZY40wkIai-70" edge="1">
          <mxGeometry width="50" height="50" relative="1" as="geometry">
            <mxPoint x="330" y="310" as="sourcePoint" />
            <mxPoint x="276" y="290" as="targetPoint" />
          </mxGeometry>
        </mxCell>
        <mxCell id="G_tm_CRtu6cZY40wkIai-75" value="" style="endArrow=none;html=1;rounded=0;strokeWidth=1;exitX=0.5;exitY=0;exitDx=0;exitDy=0;entryX=0.5;entryY=1;entryDx=0;entryDy=0;strokeColor=#000000;fontSize=14;" parent="1" source="G_tm_CRtu6cZY40wkIai-62" target="G_tm_CRtu6cZY40wkIai-70" edge="1">
          <mxGeometry width="50" height="50" relative="1" as="geometry">
            <mxPoint x="440" y="310" as="sourcePoint" />
            <mxPoint x="270" y="240" as="targetPoint" />
          </mxGeometry>
        </mxCell>
        <mxCell id="G_tm_CRtu6cZY40wkIai-76" value="" style="endArrow=none;html=1;rounded=0;strokeWidth=1;entryX=0.5;entryY=1;entryDx=0;entryDy=0;strokeColor=#000000;fontSize=14;" parent="1" target="G_tm_CRtu6cZY40wkIai-71" edge="1">
          <mxGeometry width="50" height="50" relative="1" as="geometry">
            <mxPoint x="430" y="300" as="sourcePoint" />
            <mxPoint x="276" y="290" as="targetPoint" />
          </mxGeometry>
        </mxCell>
        <mxCell id="G_tm_CRtu6cZY40wkIai-77" value="" style="endArrow=none;html=1;rounded=0;strokeWidth=1;entryX=0.5;entryY=1;entryDx=0;entryDy=0;exitX=0.5;exitY=0;exitDx=0;exitDy=0;strokeColor=#000000;fontSize=14;" parent="1" source="G_tm_CRtu6cZY40wkIai-28" target="G_tm_CRtu6cZY40wkIai-71" edge="1">
          <mxGeometry width="50" height="50" relative="1" as="geometry">
            <mxPoint x="440" y="310" as="sourcePoint" />
            <mxPoint x="495" y="290" as="targetPoint" />
          </mxGeometry>
        </mxCell>
        <mxCell id="G_tm_CRtu6cZY40wkIai-78" value="" style="endArrow=none;html=1;rounded=0;strokeWidth=1;entryX=0.5;entryY=1;entryDx=0;entryDy=0;strokeColor=#000000;fontSize=14;" parent="1" target="G_tm_CRtu6cZY40wkIai-71" edge="1">
          <mxGeometry width="50" height="50" relative="1" as="geometry">
            <mxPoint x="210" y="300" as="sourcePoint" />
            <mxPoint x="495" y="290" as="targetPoint" />
          </mxGeometry>
        </mxCell>
        <mxCell id="G_tm_CRtu6cZY40wkIai-79" value="" style="endArrow=none;html=1;rounded=0;strokeWidth=1;entryX=0.5;entryY=1;entryDx=0;entryDy=0;exitX=0.5;exitY=0;exitDx=0;exitDy=0;strokeColor=#000000;fontSize=14;" parent="1" source="G_tm_CRtu6cZY40wkIai-62" target="G_tm_CRtu6cZY40wkIai-71" edge="1">
          <mxGeometry width="50" height="50" relative="1" as="geometry">
            <mxPoint x="220" y="310" as="sourcePoint" />
            <mxPoint x="495" y="290" as="targetPoint" />
          </mxGeometry>
        </mxCell>
        <mxCell id="G_tm_CRtu6cZY40wkIai-84" value="DDR" style="rounded=0;whiteSpace=wrap;html=1;strokeWidth=1;gradientColor=none;strokeColor=#000000;fillColor=#FFFFFF;fontColor=#000000;fontSize=14;" parent="1" vertex="1">
          <mxGeometry x="160" y="130" width="100" height="60" as="geometry" />
        </mxCell>
        <mxCell id="G_tm_CRtu6cZY40wkIai-85" value="PCIe/IO" style="rounded=0;whiteSpace=wrap;html=1;strokeWidth=1;gradientColor=none;strokeColor=#000000;fillColor=#FFFFFF;fontColor=#000000;fontSize=14;" parent="1" vertex="1">
          <mxGeometry x="270" y="130" width="100" height="60" as="geometry" />
        </mxCell>
        <mxCell id="G_tm_CRtu6cZY40wkIai-86" value="PCIe/IO" style="rounded=0;whiteSpace=wrap;html=1;strokeWidth=1;gradientColor=none;strokeColor=#000000;fillColor=#FFFFFF;fontColor=#000000;fontSize=14;" parent="1" vertex="1">
          <mxGeometry x="380" y="130" width="100" height="60" as="geometry" />
        </mxCell>
        <mxCell id="G_tm_CRtu6cZY40wkIai-87" value="DDR" style="rounded=0;whiteSpace=wrap;html=1;strokeWidth=1;gradientColor=none;strokeColor=#000000;fillColor=#FFFFFF;fontColor=#000000;fontSize=14;" parent="1" vertex="1">
          <mxGeometry x="490" y="130" width="100" height="60" as="geometry" />
        </mxCell>
        <mxCell id="G_tm_CRtu6cZY40wkIai-88" value="" style="endArrow=none;html=1;rounded=0;strokeWidth=1;entryX=0.5;entryY=1;entryDx=0;entryDy=0;exitX=0.5;exitY=0;exitDx=0;exitDy=0;strokeColor=#000000;fontSize=14;" parent="1" source="G_tm_CRtu6cZY40wkIai-70" target="G_tm_CRtu6cZY40wkIai-84" edge="1">
          <mxGeometry width="50" height="50" relative="1" as="geometry">
            <mxPoint x="220" y="310" as="sourcePoint" />
            <mxPoint x="276" y="270" as="targetPoint" />
          </mxGeometry>
        </mxCell>
        <mxCell id="G_tm_CRtu6cZY40wkIai-89" value="" style="endArrow=none;html=1;rounded=0;strokeWidth=1;entryX=0.5;entryY=1;entryDx=0;entryDy=0;exitX=0.5;exitY=0;exitDx=0;exitDy=0;strokeColor=#000000;fontSize=14;" parent="1" source="G_tm_CRtu6cZY40wkIai-70" target="G_tm_CRtu6cZY40wkIai-85" edge="1">
          <mxGeometry width="50" height="50" relative="1" as="geometry">
            <mxPoint x="276" y="230" as="sourcePoint" />
            <mxPoint x="220" y="200" as="targetPoint" />
          </mxGeometry>
        </mxCell>
        <mxCell id="G_tm_CRtu6cZY40wkIai-90" value="" style="endArrow=none;html=1;rounded=0;strokeWidth=1;entryX=0.6;entryY=1;entryDx=0;entryDy=0;exitX=0.5;exitY=0;exitDx=0;exitDy=0;entryPerimeter=0;strokeColor=#000000;fontSize=14;" parent="1" source="G_tm_CRtu6cZY40wkIai-70" target="G_tm_CRtu6cZY40wkIai-86" edge="1">
          <mxGeometry width="50" height="50" relative="1" as="geometry">
            <mxPoint x="276" y="230" as="sourcePoint" />
            <mxPoint x="330" y="200" as="targetPoint" />
          </mxGeometry>
        </mxCell>
        <mxCell id="G_tm_CRtu6cZY40wkIai-91" value="" style="endArrow=none;html=1;rounded=0;strokeWidth=1;entryX=0.5;entryY=1;entryDx=0;entryDy=0;strokeColor=#000000;fontSize=14;" parent="1" target="G_tm_CRtu6cZY40wkIai-87" edge="1">
          <mxGeometry width="50" height="50" relative="1" as="geometry">
            <mxPoint x="270" y="220" as="sourcePoint" />
            <mxPoint x="450" y="200" as="targetPoint" />
          </mxGeometry>
        </mxCell>
        <mxCell id="G_tm_CRtu6cZY40wkIai-92" value="" style="endArrow=none;html=1;rounded=0;strokeWidth=1;entryX=0.5;entryY=0;entryDx=0;entryDy=0;exitX=0.5;exitY=1;exitDx=0;exitDy=0;strokeColor=#000000;fontSize=14;" parent="1" source="G_tm_CRtu6cZY40wkIai-84" target="G_tm_CRtu6cZY40wkIai-71" edge="1">
          <mxGeometry width="50" height="50" relative="1" as="geometry">
            <mxPoint x="286" y="240" as="sourcePoint" />
            <mxPoint x="460" y="210" as="targetPoint" />
          </mxGeometry>
        </mxCell>
        <mxCell id="G_tm_CRtu6cZY40wkIai-94" value="" style="endArrow=none;html=1;rounded=0;strokeWidth=1;entryX=0.5;entryY=0;entryDx=0;entryDy=0;exitX=0.5;exitY=1;exitDx=0;exitDy=0;strokeColor=#000000;fontSize=14;" parent="1" source="G_tm_CRtu6cZY40wkIai-86" target="G_tm_CRtu6cZY40wkIai-71" edge="1">
          <mxGeometry width="50" height="50" relative="1" as="geometry">
            <mxPoint x="330" y="200" as="sourcePoint" />
            <mxPoint x="495" y="230" as="targetPoint" />
          </mxGeometry>
        </mxCell>
        <mxCell id="G_tm_CRtu6cZY40wkIai-95" value="" style="endArrow=none;html=1;rounded=0;strokeWidth=1;entryX=0.5;entryY=0;entryDx=0;entryDy=0;exitX=0.57;exitY=0.983;exitDx=0;exitDy=0;exitPerimeter=0;strokeColor=#000000;fontSize=14;" parent="1" source="G_tm_CRtu6cZY40wkIai-87" target="G_tm_CRtu6cZY40wkIai-71" edge="1">
          <mxGeometry width="50" height="50" relative="1" as="geometry">
            <mxPoint x="440" y="200" as="sourcePoint" />
            <mxPoint x="495" y="230" as="targetPoint" />
          </mxGeometry>
        </mxCell>
        <mxCell id="G_tm_CRtu6cZY40wkIai-96" value="" style="swimlane;startSize=0;strokeWidth=1;gradientColor=none;strokeColor=#000000;fontSize=14;" parent="1" vertex="1">
          <mxGeometry x="150" y="120" width="450" height="440" as="geometry" />
        </mxCell>
        <mxCell id="G_tm_CRtu6cZY40wkIai-98" value="" style="endArrow=none;html=1;rounded=0;strokeWidth=1;entryX=0.5;entryY=1;entryDx=0;entryDy=0;exitX=0.5;exitY=0;exitDx=0;exitDy=0;strokeColor=#000000;fontSize=14;" parent="1" source="G_tm_CRtu6cZY40wkIai-71" target="G_tm_CRtu6cZY40wkIai-85" edge="1">
          <mxGeometry width="50" height="50" relative="1" as="geometry">
            <mxPoint x="440" y="200" as="sourcePoint" />
            <mxPoint x="495" y="230" as="targetPoint" />
          </mxGeometry>
        </mxCell>
        <mxCell id="G_tm_CRtu6cZY40wkIai-100" value="" style="shape=curlyBracket;whiteSpace=wrap;html=1;rounded=1;flipH=1;fontColor=#000000;strokeColor=#000000;strokeWidth=1;fillColor=#FFFFFF;gradientColor=none;fontSize=14;" parent="1" vertex="1">
          <mxGeometry x="610" y="360" width="20" height="190" as="geometry" />
        </mxCell>
        <mxCell id="G_tm_CRtu6cZY40wkIai-101" value="" style="shape=curlyBracket;whiteSpace=wrap;html=1;rounded=1;flipH=1;fontColor=#000000;strokeColor=#000000;strokeWidth=1;fillColor=#FFFFFF;gradientColor=none;fontSize=14;" parent="1" vertex="1">
          <mxGeometry x="610" y="200" width="20" height="160" as="geometry" />
        </mxCell>
        <mxCell id="G_tm_CRtu6cZY40wkIai-102" value="" style="shape=curlyBracket;whiteSpace=wrap;html=1;rounded=1;flipH=1;fontColor=#000000;strokeColor=#000000;strokeWidth=1;fillColor=#FFFFFF;gradientColor=none;fontSize=14;" parent="1" vertex="1">
          <mxGeometry x="610" y="130" width="20" height="70" as="geometry" />
        </mxCell>
        <mxCell id="G_tm_CRtu6cZY40wkIai-103" value="Off-chip IO" style="text;strokeColor=none;fillColor=none;html=1;fontSize=14;fontStyle=0;verticalAlign=middle;align=left;fontColor=#000000;" parent="1" vertex="1">
          <mxGeometry x="640" y="145" width="140" height="40" as="geometry" />
        </mxCell>
        <mxCell id="G_tm_CRtu6cZY40wkIai-104" value="Message routing" style="text;strokeColor=none;fillColor=none;html=1;fontSize=14;fontStyle=0;verticalAlign=middle;align=left;fontColor=#000000;" parent="1" vertex="1">
          <mxGeometry x="640" y="260" width="140" height="40" as="geometry" />
        </mxCell>
        <mxCell id="G_tm_CRtu6cZY40wkIai-105" value="Processing and memory" style="text;strokeColor=none;fillColor=none;html=1;fontSize=14;fontStyle=0;verticalAlign=middle;align=left;fontColor=#000000;" parent="1" vertex="1">
          <mxGeometry x="640" y="435" width="140" height="40" as="geometry" />
        </mxCell>
      </root>
    </mxGraphModel>
  </diagram>
</mxfile>
